<svg xmlns="http://www.w3.org/2000/svg" xmlns:xlink="http://www.w3.org/1999/xlink" width="17" height="18" viewBox="0 0 17 18"><defs><path id="jcyea" d="M980.503 447.01c4.697 0 8.505 4.03 8.505 9 0 4.972-3.808 9.002-8.505 9.002-4.697 0-8.506-4.03-8.506-9.001 0-4.971 3.809-9.002 8.506-9.002zm.587 10.101l.001-.01v-6.356c0-.344-.264-.623-.588-.623-.325 0-.588.28-.588.623v5.373l-2.423-1.209a.575.575 0 0 0-.783.298.639.639 0 0 0 .282.828l3.26 1.628.01.004a.618.618 0 0 0 .089.032l.03.01c.033.007.066.01.1.011.008 0 .015.003.022.003a.557.557 0 0 0 .214-.044l.02-.008a.55.55 0 0 0 .088-.05l.02-.016a.572.572 0 0 0 .063-.054l.019-.02a.623.623 0 0 0 .11-.165c0-.004.001-.008.003-.011.008-.021.015-.043.021-.065.006-.018.012-.036.016-.054.004-.018.005-.036.007-.054.003-.023.007-.047.007-.07z"/></defs><g><g transform="translate(-972 -447)"><use fill="#00aea2" xlink:href="#jcyea"/></g></g></svg>