<svg xmlns="http://www.w3.org/2000/svg" xmlns:xlink="http://www.w3.org/1999/xlink" width="33" height="34" viewBox="0 0 33 34"><defs><path id="n011a" d="M514.115 1989.835c.358 0 .648.289.648.642 0 .354-.29.643-.648.643h-3.88v3.848a.646.646 0 0 1-.647.642.646.646 0 0 1-.648-.642v-3.848h-3.884a.647.647 0 0 1-.648-.643c0-.353.291-.642.648-.642h3.884v-3.851c0-.354.29-.642.648-.642.356 0 .648.288.648.642v3.85zm14.707 20.07a.639.639 0 0 1-.468 1.084.643.643 0 0 1-.468-.195l-9.637-9.942a13.608 13.608 0 0 1-8.661 3.102c-7.496 0-13.591-6.047-13.591-13.477 0-7.432 6.095-13.477 13.59-13.477 7.492 0 13.591 6.045 13.591 13.477 0 3.707-1.52 7.069-3.972 9.51zm-31.53-19.428c0 6.722 5.514 12.192 12.296 12.192 6.778 0 12.295-5.47 12.295-12.192 0-6.724-5.517-12.192-12.295-12.192-6.782 0-12.295 5.468-12.295 12.192z"/></defs><g><g transform="translate(-496 -1977)"><use fill="#fff" xlink:href="#n011a"/></g></g></svg>