<svg xmlns="http://www.w3.org/2000/svg" xmlns:xlink="http://www.w3.org/1999/xlink" width="13" height="19" viewBox="0 0 13 19"><defs><path id="kd1za" d="M989.009 363.88c0 4.709-5.822 11.62-6.07 11.912a.565.565 0 0 1-.871 0c-.248-.292-6.07-7.203-6.07-11.912 0-3.794 2.919-6.88 6.506-6.88s6.505 3.086 6.505 6.88zm-3.232 0c0-1.909-1.469-3.461-3.273-3.461-1.805 0-3.273 1.552-3.273 3.461 0 1.909 1.468 3.462 3.273 3.462 1.804 0 3.273-1.553 3.273-3.462z"/></defs><g><g transform="translate(-976 -357)"><use fill="#00aea2" xlink:href="#kd1za"/></g></g></svg>