<svg xmlns:xlink="http://www.w3.org/1999/xlink">
  <symbol id="pin" viewBox="0 0 13 19">
    <path transform="translate(-976 -357)" d="M989.009 363.88c0 4.709-5.822 11.62-6.07 11.912a.565.565 0 0 1-.871 0c-.248-.292-6.07-7.203-6.07-11.912 0-3.794 2.919-6.88 6.506-6.88s6.505 3.086 6.505 6.88zm-3.232 0c0-1.909-1.469-3.461-3.273-3.461-1.805 0-3.273 1.552-3.273 3.461 0 1.909 1.468 3.462 3.273 3.462 1.804 0 3.273-1.553 3.273-3.462z"/>
  </symbol>
  <symbol id="clock" viewBox="0 0 17 18">
    <path transform="translate(-972 -447)" d="M980.503 447.01c4.697 0 8.505 4.03 8.505 9 0 4.972-3.808 9.002-8.505 9.002-4.697 0-8.506-4.03-8.506-9.001 0-4.971 3.809-9.002 8.506-9.002zm.587 10.101l.001-.01v-6.356c0-.344-.264-.623-.588-.623-.325 0-.588.28-.588.623v5.373l-2.423-1.209a.575.575 0 0 0-.783.298.639.639 0 0 0 .282.828l3.26 1.628.01.004a.618.618 0 0 0 .089.032l.03.01c.033.007.066.01.1.011.008 0 .015.003.022.003a.557.557 0 0 0 .214-.044l.02-.008a.55.55 0 0 0 .088-.05l.02-.016a.572.572 0 0 0 .063-.054l.019-.02a.623.623 0 0 0 .11-.165c0-.004.001-.008.003-.011.008-.021.015-.043.021-.065.006-.018.012-.036.016-.054.004-.018.005-.036.007-.054.003-.023.007-.047.007-.07z"/>
  </symbol>
  <symbol id="tel" viewBox="0 0 17 17">
    <path transform="translate(-975 -533)" d="M991.616 546.458l-2.624-2.636c-.522-.523-1.387-.506-1.928.037l-1.322 1.328-.261-.146c-.836-.465-1.977-1.101-3.18-2.31-1.207-1.211-1.842-2.361-2.305-3.2-.05-.088-.096-.174-.142-.256l.887-.89.437-.438c.54-.545.557-1.413.035-1.937l-2.625-2.637c-.52-.524-1.387-.508-1.93.037l-.737.746.018.02a4.31 4.31 0 0 0-.608 1.08 4.454 4.454 0 0 0-.27 1.095c-.348 2.885.965 5.522 4.526 9.1 4.925 4.945 8.894 4.573 9.066 4.554.372-.044.73-.134 1.093-.275a4.23 4.23 0 0 0 1.07-.61l.016.015.75-.738c.54-.545.556-1.413.034-1.939z"/>
  </symbol>
  <symbol id="mail" viewBox="0 0 19 12">
    <path transform="translate(-972 -628)" d="M978.497 634.017l-6.503 4.363v-9.533zm3.801.314a1.285 1.285 0 0 1-1.603 0l-7.982-6.344H990.3zm8.702-5.468v9.522l-6.502-4.367zm-7.425 5.887l7.425 4.987V640h-19.006v-.269l7.426-4.981.588.467a2.391 2.391 0 0 0 2.978 0z"/>
  </symbol>
</svg>