<svg xmlns="http://www.w3.org/2000/svg" viewBox="0 0 173 55">
  <style>
    .st0{fill-rule:evenodd;clip-rule:evenodd;fill:#3bb1a6}.st1{fill:#efefef}
  </style>
  <path class="st0" d="M2 51h58v3H2v-3zM3.5 18.5L32 2l1.5 2.5L5 21l-1.5-2.5z"/>
  <path class="st0" d="M60.5 18.5L32 2l-1.5 2.5L59 21l1.5-2.5z"/>
  <path class="st1" d="M4.2 27.6h4.4c4.7 0 7.8 2.3 7.8 7.7s-3 7.8-7.6 7.8H4.2V27.6zm4.1 12.6c2.6 0 4.4-1.3 4.4-5s-1.8-4.8-4.4-4.8h-.7v9.8h.7zM23.7 35.2c0-5 2.8-7.9 7-7.9s7 2.9 7 7.9c0 5.1-2.8 8.1-7 8.1s-7-3-7-8.1zm10.5 0c0-3.1-1.3-4.9-3.4-4.9s-3.4 1.8-3.4 4.9c0 3.1 1.3 5.1 3.4 5.1s3.4-1.9 3.4-5.1zM45.9 27.6h3.8l2.5 6.9c.3.9.6 1.9.9 2.8h.1c.3-.9.6-1.9.9-2.8l2.4-6.9h3.8V43h-3.2v-5.7c0-1.5.3-3.8.5-5.3h-.1l-1.3 3.7-2.2 6h-1.9l-2.2-5.9-1.2-3.7h-.1c.2 1.5.5 3.7.5 5.3V43H46V27.6zM69.2 27.6h5.3c3.2 0 5.7.9 5.7 3.8 0 1.4-.8 2.9-2 3.3v.1c1.6.4 2.8 1.6 2.8 3.6 0 3.2-2.7 4.6-6 4.6h-5.7V27.6zm5.1 6.2c1.7 0 2.4-.7 2.4-1.8 0-1.2-.8-1.7-2.4-1.7h-1.7v3.5h1.7zm.3 6.5c1.9 0 2.9-.7 2.9-2.1 0-1.4-.9-1.9-2.9-1.9h-2v4h2zM88.7 27.6h3.5V43h-3.5V27.6zM104.1 30.5h-4.2v-2.9h12v2.9h-4.2V43h-3.5V30.5zM118.1 35.4c0-5.1 3.4-8.1 7.3-8.1 2 0 3.6.9 4.6 2l-1.8 2.2c-.8-.7-1.6-1.2-2.7-1.2-2.1 0-3.8 1.9-3.8 5 0 3.2 1.5 5 3.7 5 1.3 0 2.3-.6 3-1.4l1.8 2.2c-1.3 1.5-3 2.3-5 2.3-3.8-.1-7.1-2.8-7.1-8zM136.2 35.2c0-5 2.8-7.9 7-7.9s7 2.9 7 7.9c0 5.1-2.8 8.1-7 8.1-4.1 0-7-3-7-8.1zm10.5 0c0-3.1-1.3-4.9-3.4-4.9s-3.4 1.8-3.4 4.9c0 3.1 1.3 5.1 3.4 5.1s3.4-1.9 3.4-5.1zM158.4 27.6h3.8l2.5 6.9c.3.9.6 1.9.9 2.8h.1c.3-.9.6-1.9.9-2.8l2.4-6.9h3.8V43h-3.2v-5.7c0-1.5.3-3.8.5-5.3h-.1l-1.3 3.7-2.2 5.9h-1.9l-2.2-5.9-1.2-3.7h-.1c.2 1.5.5 3.7.5 5.3V43h-3.1V27.6z"/>
</svg>
