<svg xmlns="http://www.w3.org/2000/svg" xmlns:xlink="http://www.w3.org/1999/xlink" width="17" height="17" viewBox="0 0 17 17"><defs><path id="newka" d="M991.616 546.458l-2.624-2.636c-.522-.523-1.387-.506-1.928.037l-1.322 1.328-.261-.146c-.836-.465-1.977-1.101-3.18-2.31-1.207-1.211-1.842-2.361-2.305-3.2-.05-.088-.096-.174-.142-.256l.887-.89.437-.438c.54-.545.557-1.413.035-1.937l-2.625-2.637c-.52-.524-1.387-.508-1.93.037l-.737.746.018.02a4.31 4.31 0 0 0-.608 1.08 4.454 4.454 0 0 0-.27 1.095c-.348 2.885.965 5.522 4.526 9.1 4.925 4.945 8.894 4.573 9.066 4.554.372-.044.73-.134 1.093-.275a4.23 4.23 0 0 0 1.07-.61l.016.015.75-.738c.54-.545.556-1.413.034-1.939z"/></defs><g><g transform="translate(-975 -533)"><use fill="#00aea2" xlink:href="#newka"/></g></g></svg>